<?xml version="1.0" encoding="UTF-8"?>
<!DOCTYPE svg PUBLIC "-//W3C//DTD SVG 1.1//EN" "http://www.w3.org/Graphics/SVG/1.1/DTD/svg11.dtd">
<!-- Creator: CorelDRAW 2026 -->
<svg xmlns="http://www.w3.org/2000/svg" xml:space="preserve" width="2.36028in" height="2.01485in" version="1.1" style="shape-rendering:geometricPrecision; text-rendering:geometricPrecision; image-rendering:optimizeQuality; fill-rule:evenodd; clip-rule:evenodd"
viewBox="0 0 3005.36 2565.52"
 xmlns:xlink="http://www.w3.org/1999/xlink"
 xmlns:xodm="http://www.corel.com/coreldraw/odm/2003">
 <defs>
  <style type="text/css">
   <![CDATA[
    .fil0 {fill:black}
   ]]>
  </style>
 </defs>
 <g id="Layer_x0020_1">
  <metadata id="CorelCorpID_0Corel-Layer"/>
  <path class="fil0" d="M1443.97 1507.38c-12.11,10.08 -26.77,17.14 -42.87,20.06l-0.01 0c-5.39,0.97 -11.98,1.48 -16.61,1.48 -4.63,0 -7.16,-0.22 -10.65,-0.61l-0.05 0c-47.04,0 -87.68,-45.86 -87.68,-92.9 0,-11.95 2.48,-23.34 6.95,-33.69l10.25 -17.6 773.53 -1329.71 0.01 -0.01c12.52,-31.77 43.56,-54.41 79.64,-54.41l299.38 0c47.05,0 85.54,38.49 85.54,85.55 0,47.05 -38.49,85.54 -85.54,85.54l-225.72 0c-0.33,0.61 -0.68,1.24 -1.01,1.8l-785.17 1334.5zm94.38 750.98l-620.67 -1066.33 -0.01 -0.01c-12.52,-31.78 -43.56,-54.42 -79.64,-54.42l-2.25 0 -0.73 -0.01 -117.12 0.01 -81.98 0 -157.48 0 -1.32 0.03 -391.64 0.02c-47.04,0 -85.51,38.47 -85.51,85.51 0,11.95 2.48,23.34 6.95,33.69l10.25 17.61c239.93,412.21 479.87,824.43 719.81,1236.64l0.01 0.01c12.52,31.78 43.56,54.41 79.64,54.41l359.56 0c47.05,0 85.54,-38.48 85.54,-85.54 0,-47.06 -38.49,-85.54 -85.54,-85.54l-285.91 0c-0.33,-0.62 -0.67,-1.22 -1.01,-1.8l-630.03 -1083.95 218.77 0 0.44 0.01 285.91 0c0.33,0.62 0.67,1.22 1,1.8l316.65 544.78c1.9,6.87 4.71,13.59 8.45,20.02 125.68,215.94 251.4,431.86 377.07,647.8 23.66,40.66 76.27,54.56 116.92,30.89 10.32,-6.01 18.92,-13.88 25.61,-22.94l10.07 -17.72c451.28,-794.44 908.19,-1578.55 1368.01,-2368.51l10.25 -17.6c4.46,-10.35 6.94,-21.75 6.94,-33.69 0,-47.04 -40.63,-92.9 -87.67,-92.9l-0.05 0c-3.5,-0.4 -7.04,-0.61 -10.65,-0.61 -5.67,0 -11.22,0.51 -16.61,1.49l-0.01 0c-16.1,2.91 -30.75,9.98 -42.87,20.05l-1306.2 2241.9 -2.95 -5.07 0.01 -0.01z"/>
 </g>
</svg>
