<?xml version="1.0" encoding="UTF-8"?>
<!DOCTYPE svg PUBLIC "-//W3C//DTD SVG 1.1//EN" "http://www.w3.org/Graphics/SVG/1.1/DTD/svg11.dtd">
<!-- Creator: CorelDRAW 2026 -->
<svg xmlns="http://www.w3.org/2000/svg" xml:space="preserve" width="7.51672in" height="2.01485in" version="1.1" style="shape-rendering:geometricPrecision; text-rendering:geometricPrecision; image-rendering:optimizeQuality; fill-rule:evenodd; clip-rule:evenodd"
viewBox="0 0 7516.72 2014.85"
 xmlns:xlink="http://www.w3.org/1999/xlink"
 xmlns:xodm="http://www.corel.com/coreldraw/odm/2003">
 <defs>
  <style type="text/css">
   <![CDATA[
    .fil0 {fill:white;fill-rule:nonzero}
    .fil1 {fill:url(#id0)}
   ]]>
  </style>
  <linearGradient id="id0" gradientUnits="userSpaceOnUse" x1="3984.17" y1="2203.6" x2="3974.13" y2="-194.93">
   <stop offset="0" style="stop-opacity:1; stop-color:#CC9933"/>
   <stop offset="1" style="stop-opacity:1; stop-color:#FFCC00"/>
  </linearGradient>
 </defs>
 <g id="Layer_x0020_1">
  <metadata id="CorelCorpID_0Corel-Layer"/>
  <path class="fil0" d="M6965.17 1530.15l0 -900.29c0,-22.99 -18.75,-41.74 -41.74,-41.74l-301.96 0c-22.99,0 -41.74,-18.75 -41.74,-41.74l0 -61.67c0,-22.99 18.75,-41.74 41.74,-41.74l853.52 0c22.99,0 41.74,18.75 41.74,41.74l0 61.67c0,22.99 -18.75,41.74 -41.74,41.74l-301.89 0c-11.51,0 -21.41,4.1 -29.54,12.25 -8.13,8.14 -12.22,18.05 -12.2,29.56l1.47 900.16c0.02,11.51 -4.07,21.41 -12.2,29.56 -8.13,8.15 -18.03,12.25 -29.54,12.25l-84.18 0c-22.99,0 -41.74,-18.75 -41.74,-41.74z"/>
  <path class="fil0" d="M5535.94 1584.79c-86.02,0 -168.53,-12.9 -247.56,-38.7 -64.82,-21.17 -118.25,-47.76 -160.29,-79.78 -15.76,-12.01 -20.91,-32.78 -12.57,-50.76l25.93 -55.96c5.34,-11.52 14.53,-19.31 26.76,-22.68 12.24,-3.38 24.12,-1.41 34.61,5.74 35.74,24.35 77.7,45.4 125.87,63.13 67.2,24.73 136.28,37.09 207.24,37.09 64.51,0 116.92,-7.53 157.24,-22.58 40.32,-15.05 69.89,-35.48 88.7,-61.28 18.81,-25.8 28.22,-54.29 28.22,-85.48 0,-38.7 -12.36,-69.61 -37.09,-92.73 -24.73,-23.11 -57.26,-41.66 -97.57,-55.63 -40.31,-13.98 -84.67,-26.61 -133.05,-37.91 -48.38,-11.29 -97.03,-23.92 -145.95,-37.9 -48.92,-13.97 -93.27,-32.52 -133.06,-55.64 -39.78,-23.12 -72.03,-53.76 -96.76,-91.93 -24.72,-38.17 -37.09,-86.81 -37.09,-145.95 0,-59.13 15.32,-113.43 45.96,-162.89 30.64,-49.46 78.22,-88.96 142.72,-118.53 64.51,-29.57 146.76,-44.35 246.75,-44.35 66.66,0 132.24,8.6 196.76,25.81 50.81,13.55 96.31,31.77 136.44,54.67 18.32,10.45 25.94,32.56 17.94,52.08l-23.23 56.71c-4.65,11.34 -12.98,19.32 -24.51,23.46 -11.53,4.14 -23.04,3.29 -33.83,-2.5 -36.41,-19.52 -74.39,-34.76 -113.93,-45.72 -54.3,-15.05 -106.71,-22.58 -157.24,-22.58 -61.29,0 -112.08,8.06 -152.41,24.19 -40.32,16.13 -69.62,37.36 -87.89,63.7 -18.28,26.34 -27.42,55.64 -27.42,87.89 0,38.7 12.36,69.61 37.09,92.74 24.72,23.11 56.98,41.39 96.76,54.83 39.78,13.44 84.13,26.07 133.05,37.9 48.92,11.82 97.57,24.46 145.95,37.9 48.38,13.44 92.74,31.45 133.06,54.03 40.32,22.58 72.84,52.95 97.57,91.12 24.73,38.17 37.09,86.28 37.09,144.34 0,58.06 -15.86,111.81 -47.57,161.27 -31.72,49.46 -80.1,88.97 -145.15,118.54 -65.04,29.56 -147.56,44.35 -247.55,44.35z"/>
  <path class="fil0" d="M2398.93 1554.1l-214.4 -305.93c-8.5,-12.13 -21.59,-18.52 -36.39,-17.73 -14.6,0.77 -29.52,1.16 -44.79,1.16l-351.58 0 2.02 -2.15c11.96,-12.74 29.54,-16.67 45.79,-10.24 16.24,6.43 26.37,21.33 26.37,38.81l0 272.13c0,22.99 -18.75,41.74 -41.74,41.74l-82.63 0c-22.99,0 -41.74,-18.75 -41.74,-41.74l0 -1045.44c0,-22.99 18.75,-41.74 41.74,-41.74l401.76 0c146.22,0 261.53,34.94 345.93,104.83 84.4,69.89 126.6,166.65 126.6,290.3 0,81.71 -19.08,151.86 -57.26,210.46 -34.93,53.63 -83.37,96.01 -145.32,127.11 -11.26,5.65 -18.72,14.97 -21.77,27.2 -3.05,12.22 -0.85,23.95 6.44,34.23l190.57 268.92c9.26,13.06 10.37,29.08 3.02,43.3 -7.35,14.22 -21.07,22.57 -37.08,22.57l-81.39 0c-14.04,0 -26.12,-6.28 -34.18,-17.78zm-70.6 -532.16c52.15,-44.08 78.22,-105.37 78.22,-183.85 0,-79.56 -26.07,-141.12 -78.22,-184.66 -52.14,-43.54 -128.75,-65.32 -229.81,-65.32l-230.81 0c-22.99,0 -41.74,18.75 -41.74,41.74l0 416.47c0,22.99 18.75,41.74 41.74,41.74l230.81 0c101.06,0 177.67,-22.04 229.81,-66.12z"/>
  <path class="fil0" d="M385.44 1530.15l0 -900.29c0,-22.99 -18.75,-41.74 -41.74,-41.74l-301.96 0c-22.99,0 -41.74,-18.75 -41.74,-41.74l0 -61.67c0,-22.99 18.75,-41.74 41.74,-41.74l853.52 0c22.99,0 41.74,18.75 41.74,41.74l0 61.67c0,22.99 -18.75,41.74 -41.74,41.74l-301.89 0c-11.51,0 -21.41,4.1 -29.54,12.25 -8.13,8.14 -12.22,18.05 -12.2,29.56l1.48 900.16c0.02,11.51 -4.07,21.41 -12.2,29.56 -8.13,8.15 -18.03,12.25 -29.54,12.25l-84.18 0c-22.99,0 -41.74,-18.75 -41.74,-41.74z"/>
  <path class="fil1" d="M3965.56 1183.83c-9.51,7.92 -21.02,13.46 -33.67,15.76l-0 0c-4.24,0.76 -9.41,1.17 -13.05,1.17 -3.64,0 -5.62,-0.17 -8.37,-0.48l-0.04 0c-36.94,0 -68.86,-36.02 -68.86,-72.96 0,-9.38 1.95,-18.33 5.46,-26.46l8.05 -13.82 607.5 -1044.3 0 -0.01c9.83,-24.95 34.21,-42.73 62.55,-42.73l235.12 0c36.95,0 67.18,30.23 67.18,67.19 0,36.95 -30.23,67.18 -67.18,67.18l-177.27 0c-0.26,0.48 -0.54,0.97 -0.79,1.41l-616.64 1048.06zm74.13 589.79l-487.45 -837.45 -0 -0.01c-9.83,-24.96 -34.21,-42.74 -62.55,-42.74l-1.76 0 -0.57 -0 -91.98 0 -64.38 0 -123.68 0 -1.04 0.02 -307.58 0.02c-36.94,0 -67.16,30.22 -67.16,67.16 0,9.38 1.95,18.33 5.46,26.46l8.05 13.83c188.43,323.73 376.87,647.47 565.31,971.2l0 0.01c9.83,24.96 34.21,42.73 62.55,42.73l282.39 0c36.95,0 67.18,-30.22 67.18,-67.18 0,-36.96 -30.23,-67.18 -67.18,-67.18l-224.54 0c-0.26,-0.48 -0.53,-0.96 -0.79,-1.41l-494.8 -851.29 171.81 0 0.35 0 224.54 0c0.26,0.48 0.52,0.96 0.79,1.41l248.68 427.85c1.5,5.39 3.7,10.67 6.63,15.72 98.7,169.59 197.44,339.17 296.13,508.75 18.58,31.93 59.9,42.85 91.82,24.26 8.11,-4.72 14.86,-10.9 20.11,-18.02l7.91 -13.91c354.42,-623.92 713.25,-1239.73 1074.38,-1860.13l8.05 -13.82c3.5,-8.13 5.45,-17.08 5.45,-26.46 0,-36.94 -31.91,-72.96 -68.85,-72.96l-0.04 0c-2.75,-0.31 -5.53,-0.48 -8.37,-0.48 -4.45,0 -8.81,0.4 -13.05,1.17l-0 0c-12.64,2.29 -24.15,7.83 -33.67,15.75l-1025.83 1760.69 -2.31 -3.98 0 -0z"/>
 </g>
</svg>
